<svg width="108" height="44" fill="none" xmlns="http://www.w3.org/2000/svg"><path d="M25.667 20.49c0 .374.295.676.66.676h2.097c.365 0 .66-.302.66-.675v-2.61h7.794v2.61c0 .373.296.675.66.675h2.098c.364 0 .66-.302.66-.675v-5.747H38.49v-7.84a.602.602 0 00-.595-.61h-8.668c-.37 0-.668.31-.66.69.014.6.017 1.565-.041 2.768-.073 1.506-.519 3.309-1.457 4.992h-1.402v5.747zm5.275-6.863c.534-1.232.678-3.212.727-4.183h3.4l.004 5.3H30.36c.207-.335.402-.7.582-1.117zm37.896 3.553V6.941a.668.668 0 00-.66-.675H66.08a.668.668 0 00-.66.675v3.406h-4.79V6.942a.668.668 0 00-.66-.675h-2.098a.668.668 0 00-.66.675V17.18c0 .374.296.676.66.676h2.098c.364 0 .66-.302.66-.676v-3.593h4.79v3.593c0 .374.296.676.66.676h2.097c.365 0 .66-.302.66-.676zm-17.563-3.299c.03 1.432.023 2.6.013 3.29a.667.667 0 00.66.684h2.085c.364 0 .66-.302.66-.676V6.942a.668.668 0 00-.66-.675h-2.454a.654.654 0 00-.502.236l-5.438 6.5a21.78 21.78 0 00.126-2.405V6.942a.668.668 0 00-.66-.675h-2.097a.668.668 0 00-.66.675V17.18c0 .374.295.676.66.676h2.454a.654.654 0 00.5-.235l5.4-6.43c-.062.481-.115 1.306-.087 2.691zm45.223 2.857l-3.783-4.773 3.666-4.619c.34-.445.03-1.095-.522-1.093l-2.366.012a.655.655 0 00-.517.26l-2.935 3.838h-1.634v-3.42a.668.668 0 00-.66-.676h-2.098a.668.668 0 00-.66.676V17.18c0 .373.296.675.66.675h2.098c.364 0 .66-.302.66-.675v-3.63h1.637l3.06 4.02c.125.165.317.26.52.26h2.355c.55 0 .859-.649.52-1.092zm-78.832 1.183c-.833 1.629-1.804 1.343-2.688 1.435-.393.04-.68.398-.657.801v1.808c.015.65.632.984 1.186.93 3.31-.328 4.684-2.567 5.184-3.423 1.034-1.77 3.832-7.869 5.42-12.153.193-.52-.133-1.08-.676-1.077l-2.063.013a.927.927 0 00-.86.613l-2.845 8.204-2.953-8.259a.84.84 0 00-.78-.557l-2.206-.014c-.503-.003-.84.53-.63.998l4.568 10.681zm90.193 19.229l-3.775-4.78 3.674-4.612c.342-.444.031-1.095-.521-1.094l-2.365.008a.653.653 0 00-.517.258l-2.996 3.904h-1.58l.006-3.494a.668.668 0 00-.66-.677l-2.097-.004a.668.668 0 00-.661.675l-.018 10.237a.67.67 0 00.66.677l2.097.004a.67.67 0 00.661-.675l.006-3.556h1.691l2.999 3.956c.125.164.317.26.52.26l2.354.004c.551.001.861-.647.522-1.091zM4.185 26.662h-1.76a.808.808 0 00-.799.817v9.917c0 .451.358.817.798.817h1.76a.808.808 0 00.799-.817V27.48a.808.808 0 00-.798-.817zm11.17 0H8.65a.808.808 0 00-.799.817v9.917c0 .451.357.817.798.817h1.76a.808.808 0 00.799-.817v-7.298h4.147c.44 0 .798-.366.798-.817v-1.802a.808.808 0 00-.798-.817zm9.591-.199c-1.413 0-2.513.623-3.359 1.482v-.466a.808.808 0 00-.798-.817h-1.76a.808.808 0 00-.798.817v14.904c0 .451.357.817.798.817h1.76a.808.808 0 00.798-.817v-5.44c.851.824 1.92 1.446 3.21 1.446 3.526 0 5.73-2.67 5.73-5.964 0-3.294-2.183-5.962-5.58-5.962zm-.55 8.834c-1.627 0-2.819-1.352-2.819-2.872 0-1.52 1.192-2.873 2.82-2.873s2.754 1.352 2.754 2.873c0 1.52-1.126 2.872-2.754 2.872zM4.15 21.086H2.46a.843.843 0 00-.834.853v1.73c0 .472.373.854.833.854h1.69c.46 0 .834-.382.834-.853v-1.73a.843.843 0 00-.833-.854zm39.754 5.57h-1.76a.808.808 0 00-.798.817v.69c-.907-.969-2.072-1.7-3.526-1.7-3.398 0-5.414 2.668-5.414 5.962 0 3.294 2.037 5.967 5.563 5.964 1.335.001 2.468-.68 3.377-1.56v.561c0 .452.357.817.798.817h1.76a.807.807 0 00.798-.817v-9.917a.808.808 0 00-.798-.817zm-5.368 8.641c-1.628 0-2.754-1.352-2.754-2.872 0-1.52 1.126-2.873 2.754-2.873 1.551 0 2.704 1.228 2.81 2.66v.426c-.106 1.431-1.259 2.659-2.81 2.659zm25.298-8.641h-1.76a.808.808 0 00-.798.817v7.385h-3.548v-7.385a.808.808 0 00-.798-.817h-1.76a.808.808 0 00-.799.817v7.385h-3.614v-7.385a.808.808 0 00-.798-.817H48.2a.808.808 0 00-.798.817v10.059c0 .373.295.675.66.675h15.911c.365 0 .66-.302.66-.675V27.473a.808.808 0 00-.798-.817zm25.269-.494a5.085 5.085 0 00-3.75 1.662c-1.302 1.233-2.957 1.94-4.788 1.94-1.98 0-3.596-.776-5.581-2.305a5.193 5.193 0 00-.182-.14l-.015-.012-.09-.062a3.955 3.955 0 00-.29-.185 5.05 5.05 0 00-2.592-.72c-2.838 0-5.146 2.363-5.146 5.268a5.359 5.359 0 001.56 3.777c.043.044 4.846 5.13 12.42 5.13 3.442 0 8.604-1.437 12.208-5.485a5.276 5.276 0 001.14-1.979l.004-.01.003-.01a5.118 5.118 0 00.16-.667l.004-.02.004-.026c.01-.064.02-.124.028-.184a5.33 5.33 0 00.048-.705c0-2.904-2.308-5.267-5.145-5.267zm1.864 5.534l-.01.075-.014.071c-.01.045-.02.089-.033.132l-.012.043a1.936 1.936 0 01-.438.751c-2.707 3.049-6.807 4.408-9.81 4.408-5.96 0-9.872-3.903-10.128-4.163l-.014-.016a1.945 1.945 0 01-.578-1.39c0-1.065.844-1.929 1.885-1.929a1.847 1.847 0 011.041.321l.005.004c.045.03.088.064.13.099 2.772 2.143 5.112 3 7.574 3 2.937 0 5.353-1.22 7.104-2.926l.008-.007c.345-.41.855-.67 1.425-.67 1.041 0 1.885.864 1.885 1.93 0 .09-.008.18-.02.267zm-78.655-19.25c.205-2.029-.508-4.318-2.182-6.204-1.185-1.335-3.086-2.95-3.086-2.95s.361.182 3.123.182a68.4 68.4 0 001.262-.001 1.047 1.047 0 001.088-1.059V.889A.879.879 0 0011.649 0H2.008c-.757 0-1.425 1.616-.56 2.492.865.876 4.5 3.965 4.5 3.965-.573-.288-1.659-.194-2.242-.03C1.552 7.033 0 9.292 0 11.764c0 3.452 2.453 6.127 5.758 6.343 3.281.215 6.215-2.313 6.554-5.661zm-5.99 2.262c-1.564.083-2.86-1.248-2.904-2.851-.044-1.619 1.06-2.956 2.603-3.038 1.565-.083 2.861 1.248 2.905 2.851.044 1.619-1.061 2.956-2.604 3.038zM76.81 6.106c-3.445 0-6.12 2.67-6.12 5.964 0 3.294 2.675 5.965 6.12 5.965 3.445 0 6.12-2.67 6.12-5.965 0-3.294-2.675-5.964-6.12-5.964zm-.008 8.829c-1.59 0-2.754-1.352-2.754-2.873 0-1.52 1.164-2.872 2.754-2.872s2.755 1.352 2.755 2.872c0 1.52-1.165 2.873-2.755 2.873z" fill="#EC008C"/></svg>