<svg width="62" height="56" viewBox="0 0 62 56" fill="none" xmlns="http://www.w3.org/2000/svg">
    <path d="M45.105 52.7333L55.335 21.9333L28.8214 2.8L2.325 21.9333L12.09 52.7333L28.83 53.2L45.105 52.7333Z" fill="url(#paint0_radial)"></path>
    <path d="M28.7801 55.7814C19.8469 55.7814 13.1538 55.0981 12.4162 55.0161C12.3342 55.0161 12.2523 54.9888 12.143 54.9615C11.4054 54.7975 10.6404 54.2509 10.258 53.6223C10.2307 53.5676 10.176 53.4856 10.1487 53.4309C10.1214 53.3763 7.28023 47.063 4.32979 38.0439C1.59791 29.4895 0.17733 22.9575 0.0407356 22.247C0.0134168 22.165 0.0134168 22.083 0.0134168 22.001C-0.0685397 21.2631 0.231967 20.3338 0.723706 19.7872C0.751025 19.7326 0.805663 19.6779 0.860301 19.6232C0.914938 19.5686 5.99624 14.9497 13.7002 9.347C20.967 4.07223 26.7312 0.710591 27.3869 0.327965C27.4688 0.273304 27.5508 0.245974 27.6054 0.218643C27.9333 0.0819912 28.343 0 28.7801 0C29.2172 0 29.5451 0.0819912 29.6817 0.136652C29.8456 0.191313 29.9822 0.245974 30.1461 0.327965C30.7744 0.68326 36.5114 4.01757 43.8601 9.347C51.1543 14.6491 56.099 19.104 56.6453 19.5959C56.7 19.6506 56.7546 19.7052 56.8093 19.7599C57.301 20.3065 57.6015 21.2084 57.5469 21.9463C57.5469 22.0283 57.5196 22.1103 57.5196 22.1923C57.4649 22.4656 56.0717 29.1069 53.1759 38.0439C50.3893 46.653 47.6848 52.7204 47.3843 53.3763C47.3569 53.4583 47.3023 53.5129 47.275 53.5949C46.8925 54.2235 46.1276 54.7975 45.4173 54.9615C45.3354 54.9888 45.2534 54.9888 45.1441 55.0161C44.4338 55.0981 37.8227 55.7814 28.7801 55.7814ZM13.7821 50.7526C15.9676 50.9439 21.6226 51.4085 28.7801 51.4085C35.9377 51.4085 41.62 50.9439 43.7782 50.7526C44.6251 48.7848 46.8106 43.51 49.0234 36.6774C51.2362 29.8448 52.5748 24.2967 53.0393 22.2196C51.4275 20.7984 47.0838 17.0815 41.2922 12.8726C35.5006 8.66374 30.6378 5.68472 28.7801 4.59151C26.8951 5.71205 22.087 8.66374 16.2681 12.8726C10.3946 17.1362 6.10552 20.7984 4.52102 22.2196C5.01276 24.3514 6.32407 29.8448 8.53689 36.6774C10.7224 43.51 12.9352 48.7848 13.7821 50.7526Z" fill="black"></path>
    <path d="M59.2406 39.957C58.9674 40.777 58.3117 41.1869 57.6288 41.1869H50.0888V30.8833H60.6338C61.6173 30.8833 61.9998 31.6213 61.7266 32.4685L59.2406 39.957Z" fill="#ED1C24"></path>
    <path d="M42.9585 32.1132C43.2317 31.2933 43.8873 30.8833 44.5703 30.8833H52.1103V41.1869H41.5926C40.6091 41.1869 40.2266 40.449 40.4998 39.6017L42.9585 32.1132Z" fill="#ED1C24"></path>
    <path d="M51.6734 33.0425H50.1435V37.306C50.1435 37.6613 49.9796 37.8253 49.6245 37.8253H48.3405C47.9853 37.8253 47.8214 37.6613 47.8214 37.306V33.0425H46.2642V37.306C46.2642 37.9073 46.4008 38.3446 46.674 38.6179C46.9472 38.8912 47.3843 39.0278 47.9853 39.0278H49.9523C50.5533 39.0278 50.9904 38.8912 51.2636 38.6179C51.5368 38.3446 51.6734 37.9073 51.6734 37.306V33.0425Z" fill="white"></path>
    <path fill-rule="evenodd" clip-rule="evenodd" d="M56.6729 38.6999L57.9569 35.3656H53.4492L54.7059 38.6999C54.7059 38.6999 54.7605 39.0278 55.143 39.0278H56.2358C56.6182 39.0278 56.6729 38.6999 56.6729 38.6999ZM56.3724 36.0488L55.6894 37.88L55.0337 36.0488H56.3724Z" fill="white"></path>
    <path d="M56.8365 33.7257L57.1097 33.0425H58.7762L58.2571 34.4363H53.1212L52.5748 33.0425H54.2412L54.5144 33.7257H56.8365Z" fill="white"></path>
    <path d="M44.3793 39.0278C44.5432 39.0278 44.6798 38.8912 44.6798 38.7272V37.8253C44.6798 37.6613 44.5432 37.5247 44.3793 37.5247H43.4778C43.3139 37.5247 43.1773 37.6613 43.1773 37.8253V38.7272C43.1773 38.8912 43.3139 39.0278 43.4778 39.0278H44.3793Z" fill="white"></path>
    <path d="M40.6911 18.8853H20.1747V18.9126C18.2897 18.94 16.7872 20.4431 16.7872 22.3016C16.7872 22.7116 16.8691 23.0942 17.0057 23.4768L23.7262 44.2753C23.972 44.9585 24.4091 45.4778 25.0648 45.4778H31.7579C32.8233 45.4778 33.1785 44.6852 33.0419 44.2479L30.3919 36.0215H35.7464C36.5933 36.0215 36.7026 35.7208 36.9758 34.9829L37.9046 31.9219C38.1232 31.2113 37.8227 30.856 37.0304 30.8834H28.7255L27.0591 25.7452H38.6969C39.735 25.7452 40.0355 25.4719 40.254 24.8433L41.5653 20.5251C41.7293 19.8692 41.5654 18.94 40.6911 18.8853Z" fill="black"></path>
    <defs>
        <radialGradient id="paint0_radial" cx="0" cy="0" r="1" gradientUnits="userSpaceOnUse" gradientTransform="translate(28.8214 27.877) rotate(90) scale(27.877 28.8214)">
            <stop stop-color="#F9D907"></stop>
            <stop offset="1" stop-color="#F8BC14"></stop>
        </radialGradient>
    </defs>
</svg>