<svg width="122" height="32" viewBox="0 0 122 32" fill="#371F5E" xmlns="http://www.w3.org/2000/svg"><path d="M115 32C113.133 32 111.379 31.3028 110.053 30.0336C108.728 28.7643 108 27.0839 108 25.2962V0H112.667V25.314C112.667 25.9039 112.909 26.476 113.357 26.905C113.805 27.3162 114.384 27.5486 115 27.5486C116.288 27.5486 117.333 26.5475 117.333 25.314V0H122V25.314C122 28.9966 118.865 32 115 32Z"></path> <path data-v-fb417666="" d="M101.947 1.96538C100.621 0.696817 98.8666 0 97 0C93.136 0 90 3.00167 90 6.70016V18.5997V23.0664V32H94.6667V23.0664H99.3333V32H104V23.0664V18.5997V6.70016C104 4.91345 103.272 3.23395 101.947 1.96538ZM94.6667 18.5997V6.70016C94.6667 5.46733 95.712 4.46677 97 4.46677C97.616 4.46677 98.2134 4.69905 98.6426 5.12786C99.0907 5.55666 99.3333 6.11054 99.3333 6.70016V18.5997H94.6667Z"></path> <path data-v-fb417666="" d="M83.9467 1.91438C83.2 1.21185 82.304 0.684958 81.3334 0.368825C80.5866 0.122942 79.8027 0 79 0C78.1787 0 76.6666 0 76.6666 0H72V8.97475V23.0252V32H76.6666C76.6666 32 78.1787 32 79 32C79.8027 32 80.5866 31.877 81.3334 31.6312C82.304 31.315 83.2 30.7881 83.9467 30.0856C85.2719 28.8386 86 27.1876 86 25.4313V23.0428V8.99231V6.56859C86 4.81228 85.2719 3.16135 83.9467 1.91438ZM81.3334 23.0077V25.3259C81.3334 25.9407 81.0906 26.5554 80.624 26.9769C79.616 27.8902 78.5894 27.5916 76.6666 27.5916V23.0077V8.95717V4.37321C78.5894 4.37321 79.616 4.07464 80.624 4.98792C81.0906 5.40944 81.3334 6.02414 81.3334 6.63885V8.95717V23.0077Z"></path> <path data-v-fb417666="" d="M61 32C59.1334 32 57.3786 31.3028 56.0534 30.0336C54.728 28.7643 54 27.0839 54 25.2962V0H58.6667V25.314C58.6667 25.9039 58.9093 26.476 59.3573 26.905C59.8053 27.3162 60.384 27.5486 61 27.5486C62.288 27.5486 63.3333 26.5475 63.3333 25.314V0H68V25.314C68 28.9966 64.8453 32 61 32Z"></path> <path data-v-fb417666="" d="M47.9466 1.96538C46.6214 0.696817 44.8666 0 43 0C39.136 0 36 3.00167 36 6.70016V18.5997V23.0664V32H40.6667V23.0664H45.3333V32H50V23.0664V18.5997V6.70016C50 4.91345 49.272 3.23395 47.9466 1.96538ZM40.6667 18.5997V6.70016C40.6667 5.46733 41.712 4.46677 43 4.46677C43.616 4.46677 44.2134 4.69905 44.6426 5.12786C45.0907 5.55666 45.3333 6.11054 45.3333 6.70016V18.5997H40.6667Z"></path> <path data-v-fb417666="" d="M32 32H27.4286V6.70391C27.4286 6.11397 27.1908 5.54191 26.752 5.13073C26.3132 4.70168 25.7464 4.46927 25.1428 4.46927C23.8812 4.46927 22.8572 5.47039 22.8572 6.70391V24.3843C22.8572 28.0849 19.7851 31.0882 16 31.0882C14.1715 31.0882 12.4526 30.391 11.1543 29.1218C9.85601 27.8525 9.14288 26.1721 9.14288 24.3843V6.70391C9.14288 6.11397 8.90516 5.54191 8.4663 5.13073C8.02744 4.70168 7.46058 4.46927 6.85715 4.46927C5.59544 4.46927 4.57143 5.47039 4.57143 6.70391V32H0V6.70391C0 3.00335 3.072 0 6.85715 0C8.68573 0 10.4046 0.697207 11.7029 1.96648C13.0012 3.23576 13.7143 4.91621 13.7143 6.70391V24.3843C13.7143 24.9744 13.952 25.5464 14.3909 25.9576C14.8297 26.3688 15.3966 26.619 16 26.619C17.2618 26.619 18.2858 25.6179 18.2858 24.3843V6.70391C18.2858 3.00335 21.3577 0 25.1428 0C26.9715 0 28.6903 0.697207 29.9886 1.96648C31.2869 3.23576 32 4.91621 32 6.70391V32Z"></path></svg>